<svg width="142" height="20" viewBox="0 0 142 20" fill="none" xmlns="http://www.w3.org/2000/svg">
<g clip-path="url(#clip0_79_895)">
<path fill-rule="evenodd" clip-rule="evenodd" d="M11.2322 1.52198C13.9673 -0.197098 17.0398 -0.544549 19.375 0.915957C23.0637 3.21883 23.5101 9.1558 20.3649 14.1716C18.0539 17.8724 14.44 20.0379 11.2221 19.9995C8.0041 20.0298 4.3902 17.8724 2.07925 14.1716C-1.04579 9.1558 -0.599355 3.21883 3.08928 0.915957C5.42245 -0.542529 8.50103 -0.195078 11.2322 1.52198ZM2.3358 9.8002C2.64893 10.9712 3.13724 12.0881 3.78418 13.1131C4.19656 13.7757 4.67142 14.3974 5.20227 14.9695C4.53565 12.2647 5.1154 8.87703 7.02032 5.82673C7.70848 4.7193 8.54669 3.7125 9.51106 2.83502C9.25881 2.70319 8.99989 2.58452 8.73536 2.47949C7.0082 1.79873 5.37801 1.83913 4.14779 2.60675C2.91758 3.37437 2.16409 4.81872 2.02269 6.67314C1.95262 7.72565 2.05844 8.78248 2.3358 9.8002ZM18.6801 13.1131C19.3273 12.0884 19.815 10.9714 20.1265 9.8002C20.4042 8.78598 20.5107 7.73252 20.4416 6.68324C20.3002 4.83892 19.5467 3.38649 18.3165 2.61685C17.0863 1.84721 15.4561 1.80277 13.729 2.48959C12.7531 2.88714 11.8505 3.44495 11.0584 4.13998C9.22609 5.74285 7.90776 7.85104 7.26879 10.2002C6.98872 11.2195 6.88085 12.2784 6.94962 13.3333C7.08901 15.1776 7.84451 16.6321 9.07473 17.3997C9.70937 17.7867 10.4364 17.996 11.1796 18.0057H11.2726C12.0158 17.9957 12.7427 17.7864 13.3775 17.3997C14.6077 16.6321 15.3632 15.1877 15.5026 13.3333C15.5722 12.2821 15.4664 11.2267 15.1895 10.2103C15.1147 9.92342 15.0258 9.63859 14.9269 9.35578L11.9836 11.1961C11.9 11.2479 11.7993 11.2644 11.7035 11.2421C11.6077 11.2197 11.5246 11.1603 11.4725 11.0769L10.8059 10.0123C10.7541 9.92868 10.7376 9.82794 10.7599 9.73214C10.7823 9.63634 10.8417 9.55331 10.9251 9.50123L15.4743 6.65294C15.5174 6.62508 15.566 6.60662 15.6167 6.59878C15.6675 6.59093 15.7194 6.59387 15.7689 6.6074C15.8185 6.62094 15.8646 6.64476 15.9043 6.67731C15.9441 6.70987 15.9765 6.75044 15.9995 6.79636C17.4681 9.58001 17.86 12.5455 17.2661 14.9695C17.7955 14.3972 18.269 13.7756 18.6801 13.1131ZM33.9155 10.5375H38.1333C38.1831 10.5324 38.2333 10.5378 38.2808 10.5535C38.3283 10.5692 38.3718 10.5948 38.4087 10.6286C38.4455 10.6624 38.4748 10.7036 38.4945 10.7496C38.5143 10.7955 38.5241 10.8451 38.5232 10.8951V15.4342C38.5243 15.4835 38.5154 15.5326 38.497 15.5785C38.4786 15.6243 38.4511 15.6659 38.4162 15.7009C38.3813 15.7358 38.3397 15.7633 38.2938 15.7817C38.248 15.8001 38.1989 15.809 38.1495 15.8079H36.7839C36.7346 15.8087 36.6857 15.7996 36.64 15.7811C36.5943 15.7626 36.5527 15.7351 36.5179 15.7002C36.483 15.6654 36.4555 15.6238 36.437 15.5781C36.4185 15.5324 36.4094 15.4835 36.4102 15.4342V14.2484C35.5436 15.3433 34.0367 16.0321 32.3317 16.0321C29.1319 16.0321 26.6291 13.6282 26.6291 10.1941C26.6291 6.63071 29.3299 4.17432 32.7418 4.17432C35.2608 4.17432 37.2748 5.25909 38.1697 7.43672C38.1937 7.49448 38.2074 7.55602 38.2101 7.61852C38.2101 7.72357 38.1414 7.80033 37.9253 7.87507L36.3294 8.48109C36.2326 8.51865 36.1253 8.51865 36.0284 8.48109C35.9433 8.43076 35.8767 8.35423 35.8386 8.26293C35.2709 7.18421 34.2488 6.44487 32.6812 6.44487C30.647 6.44487 29.1925 8.02254 29.1925 10.081C29.1925 12.0768 30.4329 13.7171 32.7378 13.7171C33.9498 13.7171 34.9113 13.1434 35.3638 12.5172H33.9235C33.8742 12.5183 33.8251 12.5094 33.7792 12.491C33.7334 12.4726 33.6917 12.4451 33.6568 12.4102C33.6219 12.3753 33.5944 12.3336 33.576 12.2878C33.5576 12.2419 33.5487 12.1928 33.5498 12.1435V10.9153C33.5482 10.8662 33.5564 10.8174 33.5741 10.7716C33.5917 10.7259 33.6184 10.6841 33.6525 10.6489C33.6866 10.6136 33.7275 10.5856 33.7727 10.5665C33.8178 10.5473 33.8664 10.5375 33.9155 10.5375ZM48.7871 4.32979H53.1868C56.7078 4.32979 59.1541 6.64075 59.1541 10.0466C59.1541 13.4524 56.7078 15.7937 53.1868 15.7937H48.7871C48.7385 15.794 48.6902 15.7844 48.6454 15.7654C48.6005 15.7464 48.56 15.7185 48.5263 15.6833C48.4927 15.6481 48.4665 15.6065 48.4496 15.5608C48.4326 15.5152 48.4251 15.4666 48.4276 15.4179V4.68936C48.4268 4.64192 48.4355 4.59479 48.4533 4.5508C48.4711 4.5068 48.4975 4.46684 48.5311 4.43328C48.5646 4.39973 48.6046 4.37327 48.6486 4.35549C48.6926 4.33771 48.7397 4.32897 48.7871 4.32979ZM50.884 13.5332H53.2899V13.5413C55.2392 13.5413 56.5785 12.0101 56.5826 10.0466C56.5826 8.04671 55.2392 6.59024 53.2899 6.59024H50.884V13.5332ZM84.8211 4.3299H86.4755C86.5211 4.32851 86.5664 4.33643 86.6088 4.35317C86.6512 4.36991 86.6898 4.39512 86.7221 4.42726C86.7544 4.4594 86.7799 4.4978 86.7969 4.5401C86.8139 4.58241 86.822 4.62773 86.8209 4.67331V15.4503C86.822 15.4959 86.8139 15.5412 86.7969 15.5836C86.7799 15.6259 86.7544 15.6643 86.7221 15.6964C86.6898 15.7285 86.6512 15.7537 86.6088 15.7705C86.5664 15.7872 86.5211 15.7951 86.4755 15.7938H84.8211C84.7301 15.7932 84.6431 15.7569 84.5788 15.6926C84.5145 15.6283 84.4782 15.5413 84.4776 15.4503V14.9433C84.0352 15.5655 83.2333 16.024 82.1687 16.024C80.1042 16.024 78.1892 14.3918 78.1892 11.7981C78.1892 9.20431 80.088 7.58826 82.1364 7.58826C83.2171 7.58826 84.0858 8.04681 84.4615 8.63667V4.67331C84.4623 4.62706 84.4722 4.58144 84.4908 4.53907C84.5093 4.4967 84.5361 4.45844 84.5695 4.42649C84.603 4.39455 84.6424 4.36956 84.6856 4.35298C84.7288 4.3364 84.7748 4.32855 84.8211 4.3299ZM80.7284 11.8243C80.7284 12.996 81.5465 13.8444 82.6374 13.8444C83.7282 13.8444 84.5483 12.994 84.5483 11.8243C84.5483 10.6547 83.7383 9.80427 82.6374 9.80427C81.5364 9.80427 80.7284 10.6527 80.7284 11.8243ZM77.1994 4.32995H75.5449C75.4985 4.32834 75.4523 4.33598 75.4089 4.35244C75.3655 4.3689 75.3258 4.39384 75.2921 4.42581C75.2584 4.45778 75.2315 4.49614 75.2128 4.53864C75.1941 4.58115 75.1841 4.62694 75.1833 4.67336V8.63673C74.8076 8.04687 73.939 7.58832 72.8583 7.58832C70.8119 7.58832 68.911 9.20437 68.911 11.7981C68.911 14.3919 70.8281 16.0241 72.8906 16.0241C73.9551 16.0241 74.7591 15.5656 75.1995 14.9434V15.4504C75.2006 15.5415 75.2374 15.6285 75.302 15.6928C75.3666 15.757 75.4538 15.7933 75.5449 15.7938H77.1994C77.2448 15.7949 77.2899 15.7868 77.3321 15.7699C77.3743 15.7531 77.4126 15.7278 77.4447 15.6957C77.4768 15.6636 77.502 15.6253 77.5189 15.5831C77.5358 15.541 77.5439 15.4958 77.5428 15.4504V4.67336C77.5439 4.62796 77.5358 4.58281 77.5189 4.54065C77.502 4.49848 77.4768 4.46018 77.4447 4.42807C77.4126 4.39596 77.3743 4.3707 77.3321 4.35384C77.2899 4.33697 77.2448 4.32885 77.1994 4.32995ZM73.3451 13.8445C72.2522 13.8445 71.4341 12.996 71.4341 11.8244C71.4341 10.6528 72.2522 9.80433 73.3451 9.80433C74.4379 9.80433 75.2541 10.6548 75.2541 11.8244C75.2541 12.994 74.442 13.8445 73.3451 13.8445ZM66.2587 7.81847H67.9131C67.9594 7.81925 68.005 7.82921 68.0474 7.84776C68.0897 7.8663 68.128 7.89308 68.1599 7.92652C68.1919 7.95997 68.2169 7.99943 68.2334 8.0426C68.25 8.08578 68.2579 8.13181 68.2565 8.17804V15.4503C68.2576 15.4957 68.2495 15.5408 68.2326 15.583C68.2158 15.6252 68.1905 15.6635 68.1584 15.6956C68.1263 15.7277 68.088 15.7529 68.0458 15.7698C68.0037 15.7867 67.9585 15.7948 67.9131 15.7937H66.2587C66.1678 15.7932 66.0807 15.7568 66.0164 15.6925C65.9521 15.6282 65.9158 15.5412 65.9153 15.4503V14.9432C65.5375 15.5654 64.6709 16.024 63.6063 16.024C61.5418 16.024 59.6268 14.3918 59.6268 11.798C59.6268 9.20424 61.558 7.58818 63.6225 7.58818C64.6871 7.58818 65.5375 8.04674 65.9153 8.67094V8.17804C65.918 8.08628 65.9546 7.99877 66.018 7.93238C66.0814 7.86599 66.1671 7.82542 66.2587 7.81847ZM62.1458 11.8041C62.1458 12.9818 62.968 13.8241 64.0649 13.8241C65.1618 13.8241 65.9839 12.9818 65.9839 11.8041C65.9839 10.6264 65.1618 9.78399 64.0649 9.78399C62.968 9.78399 62.1458 10.6264 62.1458 11.8041ZM43.4482 7.58821C42.885 7.5802 42.3259 7.68386 41.8031 7.89321C41.2803 8.10256 40.8041 8.41344 40.4022 8.80789C40.0002 9.20234 39.6804 9.67254 39.4612 10.1913C39.242 10.7101 39.1278 11.2672 39.1252 11.8303C39.1252 14.1898 41.0584 16.024 43.4482 16.024C45.8379 16.024 47.7893 14.1898 47.7893 11.8303C47.7893 9.47091 45.8722 7.58821 43.4482 7.58821ZM43.4482 13.808C43.0501 13.8168 42.6585 13.7068 42.3233 13.4919C41.9881 13.277 41.7246 12.967 41.5665 12.6016C41.4084 12.2362 41.3628 11.832 41.4356 11.4405C41.5084 11.0491 41.6963 10.6883 41.9752 10.4041C42.2542 10.12 42.6115 9.92554 43.0015 9.84554C43.3915 9.76554 43.7966 9.80366 44.1648 9.95503C44.5331 10.1064 44.8478 10.3641 45.0688 10.6953C45.2899 11.0265 45.4071 11.416 45.4056 11.8142C45.4115 12.0746 45.3652 12.3335 45.2694 12.5757C45.1736 12.8179 45.0302 13.0385 44.8478 13.2243C44.6653 13.4102 44.4474 13.5576 44.2071 13.6578C43.9667 13.7581 43.7086 13.8091 43.4482 13.808ZM95.2264 7.81848H93.576C93.4707 7.8192 93.3692 7.85742 93.2896 7.92629C93.21 7.99516 93.1575 8.09015 93.1417 8.19421L91.6165 13.8908L89.9863 8.19421C89.8914 7.8912 89.7439 7.81848 89.5318 7.81848H87.7905C87.3865 7.81848 87.3057 8.09724 87.3865 8.37601L89.5944 15.4462C89.6172 15.5457 89.6738 15.6343 89.7544 15.6969C89.835 15.7594 89.9348 15.7922 90.0368 15.7896H91.0348L90.8226 16.4926C90.6206 17.0986 90.2166 17.2623 89.7156 17.2623C89.3416 17.25 88.9811 17.1199 88.6854 16.8906C88.5915 16.8197 88.4778 16.7802 88.3602 16.7775C88.2127 16.7775 88.1097 16.8441 87.9703 17.0502L87.4855 17.7834C87.3921 17.8976 87.3401 18.04 87.338 18.1875C87.338 18.448 87.5986 18.6117 87.9097 18.7935C88.517 19.1141 89.1968 19.2728 89.8833 19.2541C91.5377 19.2541 92.6023 18.3531 93.077 16.8461L95.5456 8.38207C95.6526 8.04674 95.5658 7.81848 95.2264 7.81848ZM99.2989 12.7798L100.598 12.4263C100.911 13.9757 101.939 14.7615 103.446 14.7615C104.953 14.7615 105.765 14.0302 105.765 12.9717C105.765 11.5252 104.492 11.0104 103.144 10.4656C101.629 9.85308 100.02 9.20258 100.02 7.14786C100.02 5.55201 101.394 4.31977 103.262 4.31977C104.826 4.31977 105.925 5.01872 106.607 6.42266L105.428 6.87515C104.939 5.93582 104.24 5.49545 103.246 5.49545C102.099 5.49545 101.337 6.17621 101.337 7.09938C101.337 8.36963 102.514 8.83339 103.802 9.34102C105.36 9.95469 107.08 10.6325 107.08 12.8768C107.08 14.6564 105.62 15.9331 103.373 15.9331C101.222 15.9331 99.7393 14.7534 99.2989 12.7798ZM109.017 8.83249V13.5009C109.017 15.0745 109.844 15.933 111.328 15.933C111.72 15.9298 112.109 15.8672 112.482 15.7472V14.5998C112.166 14.7272 111.829 14.7957 111.488 14.8018C110.726 14.8018 110.276 14.4159 110.276 13.3574V8.83249H112.462V7.77398H110.27V4.96609H109.019V7.77398H107.686V8.83249H109.017ZM119.15 15.7958V14.5373C118.897 14.9703 118.534 15.3279 118.096 15.5733C117.659 15.8187 117.165 15.9429 116.663 15.9332C114.946 15.9332 113.864 14.8262 113.864 12.8283V7.77817H115.13V12.6586C115.13 14.0727 115.853 14.8019 117.009 14.8019C118.316 14.8019 119.15 13.9939 119.15 12.4667V7.77413H120.413V15.7958H119.15ZM128.024 15.7957H129.301V4.45099H128.024V9.2648C127.519 8.23053 126.509 7.63663 125.297 7.63663C123.123 7.63663 121.847 9.43247 121.847 11.7838C121.847 14.1352 123.123 15.933 125.305 15.933C126.525 15.933 127.527 15.3391 128.024 14.3028V15.7957ZM125.602 8.7618C127.198 8.7618 128.129 10.0688 128.129 11.7919H128.137C128.137 13.5009 127.192 14.822 125.602 14.822C124.012 14.822 123.178 13.4968 123.178 11.7919C123.178 10.087 124.006 8.7618 125.602 8.7618ZM131.056 5.19046C131.056 5.03064 131.104 4.87442 131.192 4.74154C131.281 4.60866 131.407 4.5051 131.555 4.44394C131.703 4.38278 131.865 4.36678 132.022 4.39796C132.179 4.42914 132.323 4.50609 132.436 4.6191C132.549 4.7321 132.626 4.87608 132.657 5.03282C132.688 5.18956 132.672 5.35203 132.611 5.49968C132.55 5.64732 132.446 5.77352 132.313 5.86231C132.18 5.95109 132.024 5.99848 131.864 5.99848C131.65 5.99848 131.444 5.91335 131.293 5.76182C131.141 5.61028 131.056 5.40476 131.056 5.19046ZM132.493 7.77412V15.7958H131.226V7.77412H132.493ZM133.842 11.784C133.842 14.1152 135.438 15.9332 137.773 15.9332C140.098 15.9332 141.696 14.1131 141.696 11.784C141.696 9.45486 140.108 7.63681 137.773 7.63681C135.438 7.63681 133.842 9.45284 133.842 11.784ZM135.173 11.7901C135.173 10.0851 136.096 8.75996 137.773 8.75996C139.45 8.75996 140.363 10.0851 140.363 11.7901C140.363 13.495 139.45 14.8202 137.773 14.8202C136.096 14.8202 135.173 13.495 135.173 11.7901Z" fill="#111111"/>
</g>
<defs>
<clipPath id="clip0_79_895">
<rect width="141.696" height="20" fill="white"/>
</clipPath>
</defs>
</svg>
